<svg width="170" height="170" viewBox="0 0 170 170" fill="none" xmlns="http://www.w3.org/2000/svg">
<path d="M155.833 34.3542V118.575C155.833 125.446 150.237 131.75 143.367 132.6L141.171 132.883C129.554 134.442 113.192 139.258 100.017 144.783C95.4125 146.696 90.3125 143.225 90.3125 138.196V39.6667C90.3125 37.0458 91.8 34.6375 94.1375 33.3625C107.1 26.35 126.721 20.1167 140.038 18.9833H140.463C148.963 18.9833 155.833 25.8542 155.833 34.3542Z" fill="white"/>
<path d="M75.8626 33.3625C62.9001 26.35 43.2793 20.1167 29.9626 18.9833H29.4668C20.9668 18.9833 14.0959 25.8542 14.0959 34.3542V118.575C14.0959 125.446 19.6918 131.75 26.5626 132.6L28.7584 132.883C40.3751 134.442 56.7376 139.258 69.9126 144.783C74.5168 146.696 79.6168 143.225 79.6168 138.196V39.6667C79.6168 36.975 78.2001 34.6375 75.8626 33.3625ZM35.4168 54.825H51.3543C54.2584 54.825 56.6668 57.2333 56.6668 60.1375C56.6668 63.1125 54.2584 65.45 51.3543 65.45H35.4168C32.5126 65.45 30.1043 63.1125 30.1043 60.1375C30.1043 57.2333 32.5126 54.825 35.4168 54.825ZM56.6668 86.7H35.4168C32.5126 86.7 30.1043 84.3625 30.1043 81.3875C30.1043 78.4833 32.5126 76.075 35.4168 76.075H56.6668C59.5709 76.075 61.9793 78.4833 61.9793 81.3875C61.9793 84.3625 59.5709 86.7 56.6668 86.7Z" fill="white"/>
</svg>
