<svg width="18" height="18" viewBox="0 0 18 18" fill="none" xmlns="http://www.w3.org/2000/svg">
<path d="M11.4451 16.6875H6.55511C2.87261 16.6875 1.29761 15.1125 1.29761 11.43V11.3325C1.29761 8.00246 2.61011 6.39746 5.55011 6.11996C5.85011 6.09746 6.13511 6.32246 6.16511 6.62996C6.19511 6.93746 5.97011 7.21496 5.65511 7.24496C3.30011 7.46246 2.42261 8.57246 2.42261 11.34V11.4375C2.42261 14.49 3.50261 15.57 6.55511 15.57H11.4451C14.4976 15.57 15.5776 14.49 15.5776 11.4375V11.34C15.5776 8.55746 14.6851 7.44746 12.2851 7.24496C11.9776 7.21496 11.7451 6.94496 11.7751 6.63746C11.8051 6.32996 12.0676 6.09746 12.3826 6.12746C15.3676 6.38246 16.7026 7.99496 16.7026 11.3475V11.445C16.7026 15.1125 15.1276 16.6875 11.4451 16.6875Z" fill="#797F86"/>
<path d="M9 11.8125C8.6925 11.8125 8.4375 11.5575 8.4375 11.25V2.71497C8.4375 2.40747 8.6925 2.15247 9 2.15247C9.3075 2.15247 9.5625 2.40747 9.5625 2.71497V11.25C9.5625 11.5575 9.3075 11.8125 9 11.8125Z" fill="#797F86"/>
<path d="M11.5124 4.94996C11.3699 4.94996 11.2274 4.89746 11.1149 4.78496L8.99988 2.66996L6.88488 4.78496C6.66738 5.00246 6.30738 5.00246 6.08988 4.78496C5.87238 4.56746 5.87238 4.20746 6.08988 3.98996L8.60238 1.47746C8.81988 1.25996 9.17988 1.25996 9.39738 1.47746L11.9099 3.98996C12.1274 4.20746 12.1274 4.56746 11.9099 4.78496C11.8049 4.89746 11.6549 4.94996 11.5124 4.94996Z" fill="#797F86"/>
</svg>
